<svg version="1.2" xmlns="http://www.w3.org/2000/svg" viewBox="0 0 512 512" width="512" height="512"><style>.a{stroke:#808080;stroke-miterlimit:100}</style><path class="a" d="m17.6 16c-0.4 0-0.7 0.1-1 0.4-0.3 0.3-0.5 0.6-0.6 1 0 0.4 0 0.8 0.3 1.1 0.2 0.4 0.5 0.6 0.9 0.7 49.9 17 86.6 27 111 34.5 12.2 3.7 21.3 6.8 27.4 9.7 3 1.4 5.2 2.8 6.6 4.2 1.5 1.3 2.1 2.4 2.2 3.6 0.2 1.2-0.1 2.5-1.2 4.3-1.1 1.7-3 3.7-5.5 6-5.1 4.6-13 10.2-23.5 17.4-21.1 14.3-52.8 34.7-94.1 65.5-0.3 0.3-0.5 0.7-0.6 1.1-0.1 0.4 0 0.8 0.2 1.2 0.3 0.3 0.6 0.6 1 0.7 0.4 0.1 0.9 0 1.2-0.2 42.7-23.7 75.7-43 99.1-55.5 11.7-6.2 21-10.6 27.8-13 3.4-1.2 6.1-1.9 8.2-2 2-0.1 3.1 0.3 3.8 0.9 0.6 0.6 1 1.6 1 3.6-0.1 1.9-0.7 4.7-2 8.2-2.5 7-7.3 16.8-14.6 29.7-14.4 25.8-38.3 63.9-71.4 116.9-0.3 0.3-0.3 0.7-0.3 1.2 0.1 0.4 0.4 0.7 0.7 1 0.4 0.2 0.8 0.3 1.2 0.2 0.4 0 0.8-0.2 1-0.6 36.1-46.9 60.3-82.6 76.8-105.2 8.3-11.3 14.6-19.4 19.4-23.8 2.4-2.3 4.4-3.6 5.8-4 1.4-0.4 2.2-0.2 3.1 0.7 2 1.8 4 7.8 5.3 17.9 1.4 10 2.4 24 3.6 42.2 2.2 36.3 5.1 89.2 12.5 160.3 0.1 0.5 0.3 0.9 0.6 1.1 0.3 0.3 0.7 0.5 1.2 0.4 0.4 0 0.8-0.2 1.1-0.5 0.3-0.3 0.4-0.8 0.4-1.2-4.9-154.9 4.5-249.9 4.5-249.9q0.1-0.3 0-0.6-0.1-0.2-0.2-0.5-0.2-0.2-0.4-0.4-0.2-0.1-0.4-0.2c-0.2-0.1-7.2-2.4-15.7-10.9-8.6-8.4-18.5-22.7-23.5-46.5q-0.1-0.3-0.3-0.6-0.1-0.2-0.4-0.4-0.2-0.2-0.5-0.2-0.3-0.1-0.6-0.1c-53.7 6.3-103.2-0.9-170.6-19.3q0 0-0.1-0.1-0.1 0-0.1 0-0.1 0-0.2 0 0 0-0.1 0zm476.7 0q0 0-0.1 0-0.1 0-0.1 0-0.1 0-0.1 0-0.1 0.1-0.1 0.1c-67.4 18.4-116.9 25.6-170.6 19.3q-0.3 0-0.6 0.1-0.3 0-0.5 0.2-0.3 0.2-0.4 0.4-0.2 0.3-0.3 0.6c-5 23.8-14.9 38.1-23.5 46.5-8.5 8.5-15.7 10.9-15.7 10.9q-0.2 0.1-0.4 0.2-0.3 0.2-0.4 0.4-0.1 0.3-0.2 0.5-0.1 0.3 0 0.6c0 0.2 9.4 95 4.5 249.9 0 0.4 0.1 0.8 0.4 1.2 0.3 0.3 0.7 0.5 1.1 0.5 0.5 0.1 0.9-0.1 1.2-0.4 0.3-0.2 0.5-0.6 0.6-1.1 7.4-71.1 10.3-124 12.5-160.3 1.2-18.2 2.2-32.2 3.5-42.2 1.4-10.1 3.4-16.1 5.4-17.9 0.9-0.9 1.7-1.1 3.1-0.7 1.4 0.4 3.4 1.7 5.8 4 4.8 4.4 11.1 12.5 19.4 23.8 16.5 22.6 40.7 58.3 76.8 105.2 0.2 0.4 0.6 0.6 1 0.6 0.4 0.1 0.8 0 1.2-0.2 0.3-0.3 0.6-0.6 0.6-1 0.1-0.5 0.1-0.9-0.2-1.2-33.1-53-57-91.1-71.4-116.9-7.3-12.9-12.1-22.7-14.6-29.7-1.3-3.5-1.9-6.3-2-8.2 0-2 0.4-3.1 1-3.6 0.6-0.6 1.8-1 3.8-0.9 2.1 0.1 4.8 0.8 8.2 2 6.8 2.4 16.1 6.8 27.8 13 23.4 12.5 56.4 31.8 99.1 55.5 0.3 0.2 0.8 0.3 1.2 0.2 0.4-0.1 0.7-0.4 1-0.7 0.2-0.4 0.3-0.8 0.2-1.2-0.1-0.4-0.3-0.8-0.7-1.1-41.2-30.8-72.9-51.2-94-65.5-10.5-7.2-18.4-12.8-23.5-17.4q-3.8-3.4-5.5-6c-1.1-1.8-1.4-3.1-1.3-4.3 0.2-1.2 0.8-2.3 2.2-3.6 1.5-1.4 3.7-2.8 6.7-4.2 6.1-2.9 15.2-6 27.4-9.7 24.4-7.5 61.1-17.5 111-34.5 0.4-0.1 0.7-0.4 0.9-0.7 0.3-0.3 0.3-0.7 0.3-1.1-0.1-0.4-0.3-0.8-0.6-1-0.3-0.3-0.7-0.4-1.1-0.4zm-237 50.9c-2.5 0-5 0.3-7.1 1.8-2.2 1.4-3.8 4-4.9 8.1-2.2 8.1-3 22.8-2.7 50.3 0.4 55 5.2 161.4 12.5 367.3 0 0.4 0.2 0.8 0.5 1.1 0.3 0.3 0.8 0.5 1.2 0.5 0.4 0 0.9-0.2 1.2-0.5 0.3-0.3 0.4-0.7 0.4-1.1 6.9-205.9 11.9-312.3 12.8-367.3 0.4-27.5-0.1-42.1-2.2-50.3-1-4.1-2.4-6.6-4.5-8.1-2.1-1.5-4.6-1.8-7.2-1.8z"/></svg>