<svg version="1.2" xmlns="http://www.w3.org/2000/svg" viewBox="0 0 600 600" width="600" height="600">
	<title>Neon Ultra</title>
	<style>
		.s0 { fill: #8ee3ff } 
	</style>
	<g>
		<path fill-rule="evenodd" class="s0" d="m347.1 364.5l57.3-20.4-37.7 43.2 78.6 6.4-74.5 32.9 61.7 62.2-79.2-20.2 14.8 36-33.8-8.2-21.8 62.9 0.1-79.1c25.8-5.6 45.1-28.6 45.1-56 0-27.4-19.3-50.3-45-56l0.3-179.3 34.4-19.9zm-61.1-160.1q0 0 0 0zm-0.1 164.2c-24.7 6.4-43 28.9-43 55.6 0 26.6 18.3 49.1 42.9 55.5v79.7l-20.4-58.7-48.8 32.8 29.3-66.5-59.7 4.5 44.8-38.2-80-44.2 79.7 3.5-45.7-79 49.7 41.2 0.2-120.9 51.1-29.5zm40.5 73.8c0 14.5-11.6 26.2-26.2 26.2-14.5 0-26.1-11.7-26.1-26.2 0-14.5 11.6-26.2 26.1-26.2 9.1 0 17.1 4.6 21.8 11.5q0.5 0.8 0.9 1.6c2.2 3.9 3.5 8.3 3.5 13.1z"/>
		<path id="Layer copy" fill-rule="evenodd" class="s0" d="m252.4 169l34.4 19.9 0.2 179.3c-25.7 5.7-44.9 28.6-44.9 56 0 27.4 19.3 50.4 45.1 56l0.1 79.1-21.8-62.9-33.8 8.2 14.8-36-79.2 20.2 61.7-62.2-74.5-32.9 78.6-6.4-37.8-43.2 57.3 20.4zm61.4 35.4q0 0 0 0zm0 0l51.1 29.5 0.1 121 49.7-41.3-45.6 79 79.7-3.5-80 44.2 44.8 38.2-59.7-4.5 29.3 66.5-48.8-32.8-20.4 58.7-0.1-79.7c24.7-6.4 42.9-28.8 42.9-55.5 0-26.7-18.2-49.2-42.9-55.5zm-37 224.9q0.5-0.8 1-1.6c4.7-7 12.6-11.5 21.7-11.5 14.5 0 26.2 11.6 26.2 26.2 0 14.5-11.7 26.1-26.2 26.1-14.5 0-26.1-11.6-26.1-26.1 0-4.8 1.2-9.3 3.4-13.1z"/>
		<path fill-rule="evenodd" class="s0" d="m65.3 60.1c0 0 183.5 21.7 183.5 21.7l-7.6 146.4c-20.3-33.7-28.2-74.3-25.6-112.4l0.7-9.4-9.4-0.6-132.2-8.1zm453.8 37.6l-132.2 8.1-9.3 0.6 0.6 9.4c2.4 34.6-3.9 71.4-20.4 103.1l-7.2-137.8 177.9-21c0 0-9.4 37.6-9.4 37.6zm-322.4 26.2q-0.3 9.5 0.3 19.2l-104.5 8.5c-5.3-11.9-9.9-23.7-13.4-34.9 0 0 117.6 7.2 117.6 7.2zm304.6 27.7l-104.5-8.5q0.5-9.7 0.3-19.2l117.5-7.2c-3.5 11.2-8 23-13.3 34.9zm-298.4 31.6l-84.1 18.3c-6.3-10.3-12.3-21-17.7-31.8l97.7-8c1 7.2 2.4 14.4 4.1 21.5zm289.8-13.5c-5.5 10.8-11.4 21.5-17.8 31.8l-84-18.3c1.7-7.1 3.1-14.3 4.1-21.5zm-277.3 49.7l-65 26.4c-7.1-8.4-14-17.7-20.7-27.5l78.4-17.1q3.2 9.3 7.3 18.2zm248.6-1.1c-6.6 9.8-13.6 19.1-20.7 27.5l-64.9-26.4q4-8.9 7.2-18.2c0 0 78.4 17.1 78.4 17.1z"/>
		<path id="Shape 1" class="s0" d="m297.7 60h4.6v371.1h-4.6z"/>
	</g>
</svg>